<?xml version="1.0" encoding="UTF-8" standalone="no"?>
<!DOCTYPE svg PUBLIC "-//W3C//DTD SVG 1.1//EN"
 "http://www.w3.org/Graphics/SVG/1.1/DTD/svg11.dtd">
<!-- Generated by graphviz version 2.43.0 (0)
 -->
<!-- Title: ZcashTechTreeGeneric Pages: 1 -->
<svg width="540pt" height="189pt"
 viewBox="0.00 0.00 540.00 189.00" xmlns="http://www.w3.org/2000/svg" xmlns:xlink="http://www.w3.org/1999/xlink">
<g id="graph0" class="graph" transform="scale(1 1) rotate(0) translate(4 185)">
<title>ZcashTechTreeGeneric</title>
<polygon fill="white" stroke="transparent" points="-4,4 -4,-185 536,-185 536,4 -4,4"/>
<g id="clust1" class="cluster">
<title>cluster_pos</title>
<polygon fill="none" stroke="lightgrey" points="151.5,-8 151.5,-83 524,-83 524,-8 151.5,-8"/>
<text text-anchor="middle" x="337.75" y="-67.8" font-family="Times,serif" font-size="14.00">PoS Transition</text>
</g>
<!-- nu6 -->
<g id="node1" class="node">
<title>nu6</title>
<polygon fill="none" stroke="black" points="113,-127 0,-127 0,-91 113,-91 113,-127"/>
<text text-anchor="middle" x="56.5" y="-105.3" font-family="Times,serif" font-size="14.00">NU6 Protocol</text>
</g>
<!-- a -->
<g id="node2" class="node">
<title>a</title>
<polygon fill="none" stroke="black" points="235.5,-181 149.5,-181 149.5,-145 235.5,-145 235.5,-181"/>
<text text-anchor="middle" x="192.5" y="-159.3" font-family="Times,serif" font-size="14.00">Feature A</text>
</g>
<!-- a&#45;&gt;nu6 -->
<g id="edge1" class="edge">
<title>a&#45;&gt;nu6</title>
<path fill="none" stroke="black" d="M149.47,-146.06C137.6,-141.28 124.52,-136.01 112.03,-130.98"/>
<polygon fill="black" stroke="black" points="113.21,-127.68 102.63,-127.19 110.6,-134.17 113.21,-127.68"/>
</g>
<!-- b -->
<g id="node3" class="node">
<title>b</title>
<polygon fill="none" stroke="black" points="367.5,-181 280.5,-181 280.5,-145 367.5,-145 367.5,-181"/>
<text text-anchor="middle" x="324" y="-159.3" font-family="Times,serif" font-size="14.00">Feature B</text>
</g>
<!-- b&#45;&gt;a -->
<g id="edge2" class="edge">
<title>b&#45;&gt;a</title>
<path fill="none" stroke="black" d="M280.24,-163C269.3,-163 257.4,-163 246.03,-163"/>
<polygon fill="black" stroke="black" points="245.78,-159.5 235.78,-163 245.78,-166.5 245.78,-159.5"/>
</g>
<!-- c -->
<g id="node4" class="node">
<title>c</title>
<polygon fill="none" stroke="black" points="236,-127 149,-127 149,-91 236,-91 236,-127"/>
<text text-anchor="middle" x="192.5" y="-105.3" font-family="Times,serif" font-size="14.00">Feature C</text>
</g>
<!-- c&#45;&gt;nu6 -->
<g id="edge3" class="edge">
<title>c&#45;&gt;nu6</title>
<path fill="none" stroke="black" d="M148.73,-109C140.59,-109 131.89,-109 123.21,-109"/>
<polygon fill="black" stroke="black" points="123.08,-105.5 113.08,-109 123.08,-112.5 123.08,-105.5"/>
</g>
<!-- d -->
<g id="node5" class="node">
<title>d</title>
<polygon fill="none" stroke="black" points="368,-127 280,-127 280,-91 368,-91 368,-127"/>
<text text-anchor="middle" x="324" y="-105.3" font-family="Times,serif" font-size="14.00">Feature D</text>
</g>
<!-- d&#45;&gt;a -->
<g id="edge5" class="edge">
<title>d&#45;&gt;a</title>
<path fill="none" stroke="black" d="M279.88,-126.98C268.73,-131.63 256.61,-136.68 245.07,-141.49"/>
<polygon fill="black" stroke="black" points="243.44,-138.39 235.55,-145.46 246.13,-144.85 243.44,-138.39"/>
</g>
<!-- d&#45;&gt;c -->
<g id="edge4" class="edge">
<title>d&#45;&gt;c</title>
<path fill="none" stroke="black" d="M279.88,-109C269.18,-109 257.58,-109 246.47,-109"/>
<polygon fill="black" stroke="black" points="246.43,-105.5 236.43,-109 246.43,-112.5 246.43,-105.5"/>
</g>
<!-- e -->
<g id="node6" class="node">
<title>e</title>
<polygon fill="none" stroke="black" points="507.5,-127 420.5,-127 420.5,-91 507.5,-91 507.5,-127"/>
<text text-anchor="middle" x="464" y="-105.3" font-family="Times,serif" font-size="14.00">Feature E</text>
</g>
<!-- e&#45;&gt;d -->
<g id="edge7" class="edge">
<title>e&#45;&gt;d</title>
<path fill="none" stroke="black" d="M420.47,-109C407.09,-109 392.14,-109 378.12,-109"/>
<polygon fill="black" stroke="black" points="378.1,-105.5 368.1,-109 378.1,-112.5 378.1,-105.5"/>
</g>
<!-- pos2 -->
<g id="node7" class="node">
<title>pos2</title>
<polygon fill="none" stroke="black" points="376,-52 272,-52 272,-16 376,-16 376,-52"/>
<text text-anchor="middle" x="324" y="-30.3" font-family="Times,serif" font-size="14.00">Pure PoS v1</text>
</g>
<!-- e&#45;&gt;pos2 -->
<g id="edge6" class="edge">
<title>e&#45;&gt;pos2</title>
<path fill="none" stroke="black" d="M420.49,-91.2C417.59,-89.82 414.74,-88.42 412,-87 394.93,-78.17 376.67,-67.29 361.31,-57.69"/>
<polygon fill="black" stroke="black" points="362.96,-54.59 352.64,-52.2 359.22,-60.5 362.96,-54.59"/>
</g>
<!-- pos1 -->
<g id="node8" class="node">
<title>pos1</title>
<polygon fill="none" stroke="black" points="225.5,-52 159.5,-52 159.5,-16 225.5,-16 225.5,-52"/>
<text text-anchor="middle" x="192.5" y="-30.3" font-family="Times,serif" font-size="14.00">TFL v1</text>
</g>
<!-- pos2&#45;&gt;pos1 -->
<g id="edge9" class="edge">
<title>pos2&#45;&gt;pos1</title>
<path fill="none" stroke="black" d="M271.82,-34C259.91,-34 247.36,-34 235.88,-34"/>
<polygon fill="black" stroke="black" points="235.69,-30.5 225.69,-34 235.69,-37.5 235.69,-30.5"/>
</g>
<!-- pos1&#45;&gt;nu6 -->
<g id="edge8" class="edge">
<title>pos1&#45;&gt;nu6</title>
<path fill="none" stroke="black" d="M159.4,-51.96C141.22,-62.14 118.28,-74.98 98.78,-85.9"/>
<polygon fill="black" stroke="black" points="96.82,-82.98 89.8,-90.92 100.23,-89.09 96.82,-82.98"/>
</g>
<!-- pos3 -->
<g id="node9" class="node">
<title>pos3</title>
<polygon fill="none" stroke="black" points="516,-52 412,-52 412,-16 516,-16 516,-52"/>
<text text-anchor="middle" x="464" y="-30.3" font-family="Times,serif" font-size="14.00">Pure PoS v2</text>
</g>
<!-- pos3&#45;&gt;pos2 -->
<g id="edge10" class="edge">
<title>pos3&#45;&gt;pos2</title>
<path fill="none" stroke="black" d="M411.61,-34C403.44,-34 394.92,-34 386.54,-34"/>
<polygon fill="black" stroke="black" points="386.43,-30.5 376.43,-34 386.43,-37.5 386.43,-30.5"/>
</g>
</g>
</svg>
