<?xml version="1.0" encoding="UTF-8" standalone="no"?>
<!DOCTYPE svg PUBLIC "-//W3C//DTD SVG 1.1//EN"
 "http://www.w3.org/Graphics/SVG/1.1/DTD/svg11.dtd">
<!-- Generated by graphviz version 2.43.0 (0)
 -->
<!-- Title: BlockHistory Pages: 1 -->
<svg width="476pt" height="44pt"
 viewBox="0.00 0.00 476.00 44.00" xmlns="http://www.w3.org/2000/svg" xmlns:xlink="http://www.w3.org/1999/xlink">
<g id="graph0" class="graph" transform="scale(1 1) rotate(0) translate(4 40)">
<title>BlockHistory</title>
<polygon fill="white" stroke="transparent" points="-4,4 -4,-40 472,-40 472,4 -4,4"/>
<!-- g -->
<g id="node1" class="node">
<title>g</title>
<polygon fill="none" stroke="black" points="468,-36 432,-36 432,0 468,0 468,-36"/>
<text text-anchor="middle" x="450" y="-14.3" font-family="Times,serif" font-size="14.00">g</text>
</g>
<!-- f -->
<g id="node2" class="node">
<title>f</title>
<polygon fill="none" stroke="black" points="396,-36 360,-36 360,0 396,0 396,-36"/>
<text text-anchor="middle" x="378" y="-14.3" font-family="Times,serif" font-size="14.00">f</text>
</g>
<!-- g&#45;&gt;f -->
<g id="edge1" class="edge">
<title>g&#45;&gt;f</title>
<path fill="none" stroke="black" d="M431.7,-18C423.98,-18 414.71,-18 406.11,-18"/>
<polygon fill="black" stroke="black" points="406.1,-14.5 396.1,-18 406.1,-21.5 406.1,-14.5"/>
</g>
<!-- e -->
<g id="node3" class="node">
<title>e</title>
<polygon fill="none" stroke="black" points="324,-36 288,-36 288,0 324,0 324,-36"/>
<text text-anchor="middle" x="306" y="-14.3" font-family="Times,serif" font-size="14.00">e</text>
</g>
<!-- f&#45;&gt;e -->
<g id="edge2" class="edge">
<title>f&#45;&gt;e</title>
<path fill="none" stroke="black" d="M359.7,-18C351.98,-18 342.71,-18 334.11,-18"/>
<polygon fill="black" stroke="black" points="334.1,-14.5 324.1,-18 334.1,-21.5 334.1,-14.5"/>
</g>
<!-- d -->
<g id="node4" class="node">
<title>d</title>
<polygon fill="none" stroke="black" points="252,-36 216,-36 216,0 252,0 252,-36"/>
<text text-anchor="middle" x="234" y="-14.3" font-family="Times,serif" font-size="14.00">d</text>
</g>
<!-- e&#45;&gt;d -->
<g id="edge3" class="edge">
<title>e&#45;&gt;d</title>
<path fill="none" stroke="black" d="M287.7,-18C279.98,-18 270.71,-18 262.11,-18"/>
<polygon fill="black" stroke="black" points="262.1,-14.5 252.1,-18 262.1,-21.5 262.1,-14.5"/>
</g>
<!-- c -->
<g id="node5" class="node">
<title>c</title>
<polygon fill="none" stroke="black" points="180,-36 144,-36 144,0 180,0 180,-36"/>
<text text-anchor="middle" x="162" y="-14.3" font-family="Times,serif" font-size="14.00">c</text>
</g>
<!-- d&#45;&gt;c -->
<g id="edge4" class="edge">
<title>d&#45;&gt;c</title>
<path fill="none" stroke="black" d="M215.7,-18C207.98,-18 198.71,-18 190.11,-18"/>
<polygon fill="black" stroke="black" points="190.1,-14.5 180.1,-18 190.1,-21.5 190.1,-14.5"/>
</g>
<!-- b -->
<g id="node6" class="node">
<title>b</title>
<polygon fill="none" stroke="black" points="108,-36 72,-36 72,0 108,0 108,-36"/>
<text text-anchor="middle" x="90" y="-14.3" font-family="Times,serif" font-size="14.00">b</text>
</g>
<!-- c&#45;&gt;b -->
<g id="edge5" class="edge">
<title>c&#45;&gt;b</title>
<path fill="none" stroke="black" d="M143.7,-18C135.98,-18 126.71,-18 118.11,-18"/>
<polygon fill="black" stroke="black" points="118.1,-14.5 108.1,-18 118.1,-21.5 118.1,-14.5"/>
</g>
<!-- a -->
<g id="node7" class="node">
<title>a</title>
<polygon fill="none" stroke="black" points="36,-36 0,-36 0,0 36,0 36,-36"/>
<text text-anchor="middle" x="18" y="-14.3" font-family="Times,serif" font-size="14.00">a</text>
</g>
<!-- b&#45;&gt;a -->
<g id="edge6" class="edge">
<title>b&#45;&gt;a</title>
<path fill="none" stroke="black" d="M71.7,-18C63.98,-18 54.71,-18 46.11,-18"/>
<polygon fill="black" stroke="black" points="46.1,-14.5 36.1,-18 46.1,-21.5 46.1,-14.5"/>
</g>
</g>
</svg>
