<?xml version="1.0" encoding="UTF-8" standalone="no"?>
<!DOCTYPE svg PUBLIC "-//W3C//DTD SVG 1.1//EN"
 "http://www.w3.org/Graphics/SVG/1.1/DTD/svg11.dtd">
<!-- Generated by graphviz version 2.43.0 (0)
 -->
<!-- Title: BlockHistory Pages: 1 -->
<svg width="652pt" height="182pt"
 viewBox="0.00 0.00 652.00 182.00" xmlns="http://www.w3.org/2000/svg" xmlns:xlink="http://www.w3.org/1999/xlink">
<g id="graph0" class="graph" transform="scale(1 1) rotate(0) translate(4 178)">
<title>BlockHistory</title>
<polygon fill="white" stroke="transparent" points="-4,4 -4,-178 648,-178 648,4 -4,4"/>
<g id="clust1" class="cluster">
<title>cluster_pow</title>
<polygon fill="none" stroke="lightgrey" points="296,-91 296,-166 564,-166 564,-91 296,-91"/>
<text text-anchor="middle" x="430" y="-150.8" font-family="Times,serif" font-size="14.00">Unfinalized PoW Blocks</text>
</g>
<g id="clust2" class="cluster">
<title>cluster_final</title>
<polygon fill="none" stroke="lightgrey" points="8,-91 8,-166 276,-166 276,-91 8,-91"/>
<text text-anchor="middle" x="142" y="-150.8" font-family="Times,serif" font-size="14.00">Finalized Blocks</text>
</g>
<g id="clust3" class="cluster">
<title>cluster_finality_violation</title>
<polygon fill="none" stroke="red" points="224,-8 224,-83 636,-83 636,-8 224,-8"/>
<text text-anchor="middle" x="430" y="-67.8" font-family="Times,serif" font-size="14.00">Finality&#45;violating Blocks</text>
</g>
<!-- h1 -->
<g id="node1" class="node">
<title>h1</title>
<polygon fill="none" stroke="black" points="556,-135 520,-135 520,-99 556,-99 556,-135"/>
<text text-anchor="middle" x="538" y="-113.3" font-family="Times,serif" font-size="14.00">h&#39;</text>
</g>
<!-- g1 -->
<g id="node2" class="node">
<title>g1</title>
<polygon fill="none" stroke="black" points="484,-135 448,-135 448,-99 484,-99 484,-135"/>
<text text-anchor="middle" x="466" y="-113.3" font-family="Times,serif" font-size="14.00">g&#39;</text>
</g>
<!-- h1&#45;&gt;g1 -->
<g id="edge1" class="edge">
<title>h1&#45;&gt;g1</title>
<path fill="none" stroke="black" d="M519.7,-117C511.98,-117 502.71,-117 494.11,-117"/>
<polygon fill="black" stroke="black" points="494.1,-113.5 484.1,-117 494.1,-120.5 494.1,-113.5"/>
</g>
<!-- f1 -->
<g id="node3" class="node">
<title>f1</title>
<polygon fill="none" stroke="black" points="412,-135 376,-135 376,-99 412,-99 412,-135"/>
<text text-anchor="middle" x="394" y="-113.3" font-family="Times,serif" font-size="14.00">f&#39;</text>
</g>
<!-- g1&#45;&gt;f1 -->
<g id="edge2" class="edge">
<title>g1&#45;&gt;f1</title>
<path fill="none" stroke="black" d="M447.7,-117C439.98,-117 430.71,-117 422.11,-117"/>
<polygon fill="black" stroke="black" points="422.1,-113.5 412.1,-117 422.1,-120.5 422.1,-113.5"/>
</g>
<!-- e -->
<g id="node4" class="node">
<title>e</title>
<polygon fill="none" stroke="black" points="340,-135 304,-135 304,-99 340,-99 340,-135"/>
<text text-anchor="middle" x="322" y="-113.3" font-family="Times,serif" font-size="14.00">e</text>
</g>
<!-- f1&#45;&gt;e -->
<g id="edge3" class="edge">
<title>f1&#45;&gt;e</title>
<path fill="none" stroke="black" d="M375.7,-117C367.98,-117 358.71,-117 350.11,-117"/>
<polygon fill="black" stroke="black" points="350.1,-113.5 340.1,-117 350.1,-120.5 350.1,-113.5"/>
</g>
<!-- d -->
<g id="node5" class="node">
<title>d</title>
<polygon fill="none" stroke="black" points="268,-135 232,-135 232,-99 268,-99 268,-135"/>
<polyline fill="none" stroke="black" points="244,-135 232,-123 "/>
<polyline fill="none" stroke="black" points="232,-111 244,-99 "/>
<polyline fill="none" stroke="black" points="256,-99 268,-111 "/>
<polyline fill="none" stroke="black" points="268,-123 256,-135 "/>
<text text-anchor="middle" x="250" y="-113.3" font-family="Times,serif" font-size="14.00">d</text>
</g>
<!-- e&#45;&gt;d -->
<g id="edge4" class="edge">
<title>e&#45;&gt;d</title>
<path fill="none" stroke="black" d="M303.7,-117C295.98,-117 286.71,-117 278.11,-117"/>
<polygon fill="black" stroke="black" points="278.1,-113.5 268.1,-117 278.1,-120.5 278.1,-113.5"/>
</g>
<!-- c -->
<g id="node6" class="node">
<title>c</title>
<polygon fill="none" stroke="black" points="196,-135 160,-135 160,-99 196,-99 196,-135"/>
<polyline fill="none" stroke="black" points="172,-135 160,-123 "/>
<polyline fill="none" stroke="black" points="160,-111 172,-99 "/>
<polyline fill="none" stroke="black" points="184,-99 196,-111 "/>
<polyline fill="none" stroke="black" points="196,-123 184,-135 "/>
<text text-anchor="middle" x="178" y="-113.3" font-family="Times,serif" font-size="14.00">c</text>
</g>
<!-- d&#45;&gt;c -->
<g id="edge5" class="edge">
<title>d&#45;&gt;c</title>
<path fill="none" stroke="black" d="M231.7,-117C223.98,-117 214.71,-117 206.11,-117"/>
<polygon fill="black" stroke="black" points="206.1,-113.5 196.1,-117 206.1,-120.5 206.1,-113.5"/>
</g>
<!-- b -->
<g id="node7" class="node">
<title>b</title>
<polygon fill="none" stroke="black" points="124,-135 88,-135 88,-99 124,-99 124,-135"/>
<polyline fill="none" stroke="black" points="100,-135 88,-123 "/>
<polyline fill="none" stroke="black" points="88,-111 100,-99 "/>
<polyline fill="none" stroke="black" points="112,-99 124,-111 "/>
<polyline fill="none" stroke="black" points="124,-123 112,-135 "/>
<text text-anchor="middle" x="106" y="-113.3" font-family="Times,serif" font-size="14.00">b</text>
</g>
<!-- c&#45;&gt;b -->
<g id="edge6" class="edge">
<title>c&#45;&gt;b</title>
<path fill="none" stroke="black" d="M159.7,-117C151.98,-117 142.71,-117 134.11,-117"/>
<polygon fill="black" stroke="black" points="134.1,-113.5 124.1,-117 134.1,-120.5 134.1,-113.5"/>
</g>
<!-- a -->
<g id="node8" class="node">
<title>a</title>
<polygon fill="none" stroke="black" points="52,-135 16,-135 16,-99 52,-99 52,-135"/>
<polyline fill="none" stroke="black" points="28,-135 16,-123 "/>
<polyline fill="none" stroke="black" points="16,-111 28,-99 "/>
<polyline fill="none" stroke="black" points="40,-99 52,-111 "/>
<polyline fill="none" stroke="black" points="52,-123 40,-135 "/>
<text text-anchor="middle" x="34" y="-113.3" font-family="Times,serif" font-size="14.00">a</text>
</g>
<!-- b&#45;&gt;a -->
<g id="edge7" class="edge">
<title>b&#45;&gt;a</title>
<path fill="none" stroke="black" d="M87.7,-117C79.98,-117 70.71,-117 62.11,-117"/>
<polygon fill="black" stroke="black" points="62.1,-113.5 52.1,-117 62.1,-120.5 62.1,-113.5"/>
</g>
<!-- i2 -->
<g id="node9" class="node">
<title>i2</title>
<polygon fill="none" stroke="black" stroke-dasharray="1,5" points="628,-52 592,-52 592,-16 628,-16 628,-52"/>
<text text-anchor="middle" x="610" y="-30.3" font-family="Times,serif" font-size="14.00">i&#39;&#39;</text>
</g>
<!-- h2 -->
<g id="node10" class="node">
<title>h2</title>
<polygon fill="none" stroke="black" stroke-dasharray="1,5" points="556,-52 520,-52 520,-16 556,-16 556,-52"/>
<text text-anchor="middle" x="538" y="-30.3" font-family="Times,serif" font-size="14.00">h&#39;&#39;</text>
</g>
<!-- i2&#45;&gt;h2 -->
<g id="edge8" class="edge">
<title>i2&#45;&gt;h2</title>
<path fill="none" stroke="black" stroke-dasharray="1,5" d="M591.7,-34C583.98,-34 574.71,-34 566.11,-34"/>
<polygon fill="black" stroke="black" points="566.1,-30.5 556.1,-34 566.1,-37.5 566.1,-30.5"/>
</g>
<!-- g2 -->
<g id="node11" class="node">
<title>g2</title>
<polygon fill="none" stroke="black" stroke-dasharray="1,5" points="484,-52 448,-52 448,-16 484,-16 484,-52"/>
<text text-anchor="middle" x="466" y="-30.3" font-family="Times,serif" font-size="14.00">g&#39;&#39;</text>
</g>
<!-- h2&#45;&gt;g2 -->
<g id="edge9" class="edge">
<title>h2&#45;&gt;g2</title>
<path fill="none" stroke="black" stroke-dasharray="1,5" d="M519.7,-34C511.98,-34 502.71,-34 494.11,-34"/>
<polygon fill="black" stroke="black" points="494.1,-30.5 484.1,-34 494.1,-37.5 494.1,-30.5"/>
</g>
<!-- f2 -->
<g id="node12" class="node">
<title>f2</title>
<polygon fill="none" stroke="black" stroke-dasharray="1,5" points="412,-52 376,-52 376,-16 412,-16 412,-52"/>
<text text-anchor="middle" x="394" y="-30.3" font-family="Times,serif" font-size="14.00">f&#39;&#39;</text>
</g>
<!-- g2&#45;&gt;f2 -->
<g id="edge10" class="edge">
<title>g2&#45;&gt;f2</title>
<path fill="none" stroke="black" stroke-dasharray="1,5" d="M447.7,-34C439.98,-34 430.71,-34 422.11,-34"/>
<polygon fill="black" stroke="black" points="422.1,-30.5 412.1,-34 422.1,-37.5 422.1,-30.5"/>
</g>
<!-- e2 -->
<g id="node13" class="node">
<title>e2</title>
<polygon fill="none" stroke="black" stroke-dasharray="1,5" points="340,-52 304,-52 304,-16 340,-16 340,-52"/>
<text text-anchor="middle" x="322" y="-30.3" font-family="Times,serif" font-size="14.00">e&#39;&#39;</text>
</g>
<!-- f2&#45;&gt;e2 -->
<g id="edge11" class="edge">
<title>f2&#45;&gt;e2</title>
<path fill="none" stroke="black" stroke-dasharray="1,5" d="M375.7,-34C367.98,-34 358.71,-34 350.11,-34"/>
<polygon fill="black" stroke="black" points="350.1,-30.5 340.1,-34 350.1,-37.5 350.1,-30.5"/>
</g>
<!-- d2 -->
<g id="node14" class="node">
<title>d2</title>
<polygon fill="none" stroke="black" stroke-dasharray="1,5" points="268,-52 232,-52 232,-16 268,-16 268,-52"/>
<text text-anchor="middle" x="250" y="-30.3" font-family="Times,serif" font-size="14.00">d&#39;&#39;</text>
</g>
<!-- e2&#45;&gt;d2 -->
<g id="edge12" class="edge">
<title>e2&#45;&gt;d2</title>
<path fill="none" stroke="black" stroke-dasharray="1,5" d="M303.7,-34C295.98,-34 286.71,-34 278.11,-34"/>
<polygon fill="black" stroke="black" points="278.1,-30.5 268.1,-34 278.1,-37.5 278.1,-30.5"/>
</g>
<!-- d2&#45;&gt;c -->
<g id="edge13" class="edge">
<title>d2&#45;&gt;c</title>
<path fill="none" stroke="black" stroke-dasharray="1,5" d="M233.81,-52.01C224.25,-63.35 211.74,-78.18 201.08,-90.82"/>
<polygon fill="black" stroke="black" points="198.17,-88.84 194.4,-98.74 203.52,-93.35 198.17,-88.84"/>
</g>
</g>
</svg>
