<?xml version="1.0" encoding="UTF-8" standalone="no"?>
<!DOCTYPE svg PUBLIC "-//W3C//DTD SVG 1.1//EN"
 "http://www.w3.org/Graphics/SVG/1.1/DTD/svg11.dtd">
<!-- Generated by graphviz version 2.43.0 (0)
 -->
<!-- Title: BlockHistory Pages: 1 -->
<svg width="588pt" height="221pt"
 viewBox="0.00 0.00 588.00 221.00" xmlns="http://www.w3.org/2000/svg" xmlns:xlink="http://www.w3.org/1999/xlink">
<g id="graph0" class="graph" transform="scale(1 1) rotate(0) translate(4 217)">
<title>BlockHistory</title>
<polygon fill="white" stroke="transparent" points="-4,4 -4,-217 584,-217 584,4 -4,4"/>
<g id="clust1" class="cluster">
<title>cluster_pow</title>
<polygon fill="none" stroke="lightgrey" points="296,-8 296,-205 572,-205 572,-8 296,-8"/>
<text text-anchor="middle" x="434" y="-189.8" font-family="Times,serif" font-size="14.00">Unfinalized PoW Blocks</text>
</g>
<g id="clust2" class="cluster">
<title>cluster_rollback_branch</title>
<polygon fill="none" stroke="lightgrey" points="368,-99 368,-174 492,-174 492,-99 368,-99"/>
<text text-anchor="middle" x="430" y="-158.8" font-family="Times,serif" font-size="14.00">T=0</text>
</g>
<g id="clust3" class="cluster">
<title>cluster_winning_branch</title>
<polygon fill="none" stroke="lightgrey" points="368,-16 368,-91 564,-91 564,-16 368,-16"/>
<text text-anchor="middle" x="466" y="-75.8" font-family="Times,serif" font-size="14.00">T=1</text>
</g>
<g id="clust4" class="cluster">
<title>cluster_final</title>
<polygon fill="none" stroke="lightgrey" points="8,-57 8,-132 276,-132 276,-57 8,-57"/>
<text text-anchor="middle" x="142" y="-116.8" font-family="Times,serif" font-size="14.00">Finalized Blocks</text>
</g>
<!-- g0 -->
<g id="node1" class="node">
<title>g0</title>
<polygon fill="none" stroke="black" stroke-dasharray="1,5" points="484,-143 448,-143 448,-107 484,-107 484,-143"/>
<text text-anchor="middle" x="466" y="-121.3" font-family="Times,serif" font-size="14.00">g</text>
</g>
<!-- f0 -->
<g id="node2" class="node">
<title>f0</title>
<polygon fill="none" stroke="black" stroke-dasharray="1,5" points="412,-143 376,-143 376,-107 412,-107 412,-143"/>
<text text-anchor="middle" x="394" y="-121.3" font-family="Times,serif" font-size="14.00">f</text>
</g>
<!-- g0&#45;&gt;f0 -->
<g id="edge1" class="edge">
<title>g0&#45;&gt;f0</title>
<path fill="none" stroke="black" d="M447.7,-125C439.98,-125 430.71,-125 422.11,-125"/>
<polygon fill="black" stroke="black" points="422.1,-121.5 412.1,-125 422.1,-128.5 422.1,-121.5"/>
</g>
<!-- e -->
<g id="node6" class="node">
<title>e</title>
<polygon fill="none" stroke="black" points="340,-101 304,-101 304,-65 340,-65 340,-101"/>
<text text-anchor="middle" x="322" y="-79.3" font-family="Times,serif" font-size="14.00">e</text>
</g>
<!-- f0&#45;&gt;e -->
<g id="edge4" class="edge">
<title>f0&#45;&gt;e</title>
<path fill="none" stroke="black" d="M375.7,-114.62C367.56,-109.74 357.69,-103.81 348.7,-98.42"/>
<polygon fill="black" stroke="black" points="350.48,-95.41 340.1,-93.26 346.88,-101.41 350.48,-95.41"/>
</g>
<!-- h1 -->
<g id="node3" class="node">
<title>h1</title>
<polygon fill="none" stroke="black" points="556,-60 520,-60 520,-24 556,-24 556,-60"/>
<text text-anchor="middle" x="538" y="-38.3" font-family="Times,serif" font-size="14.00">h&#39;</text>
</g>
<!-- g1 -->
<g id="node4" class="node">
<title>g1</title>
<polygon fill="none" stroke="black" points="484,-60 448,-60 448,-24 484,-24 484,-60"/>
<text text-anchor="middle" x="466" y="-38.3" font-family="Times,serif" font-size="14.00">g&#39;</text>
</g>
<!-- h1&#45;&gt;g1 -->
<g id="edge2" class="edge">
<title>h1&#45;&gt;g1</title>
<path fill="none" stroke="black" d="M519.7,-42C511.98,-42 502.71,-42 494.11,-42"/>
<polygon fill="black" stroke="black" points="494.1,-38.5 484.1,-42 494.1,-45.5 494.1,-38.5"/>
</g>
<!-- f1 -->
<g id="node5" class="node">
<title>f1</title>
<polygon fill="none" stroke="black" points="412,-60 376,-60 376,-24 412,-24 412,-60"/>
<text text-anchor="middle" x="394" y="-38.3" font-family="Times,serif" font-size="14.00">f&#39;</text>
</g>
<!-- g1&#45;&gt;f1 -->
<g id="edge3" class="edge">
<title>g1&#45;&gt;f1</title>
<path fill="none" stroke="black" d="M447.7,-42C439.98,-42 430.71,-42 422.11,-42"/>
<polygon fill="black" stroke="black" points="422.1,-38.5 412.1,-42 422.1,-45.5 422.1,-38.5"/>
</g>
<!-- f1&#45;&gt;e -->
<g id="edge5" class="edge">
<title>f1&#45;&gt;e</title>
<path fill="none" stroke="black" d="M375.7,-52.13C367.64,-56.85 357.89,-62.56 348.98,-67.78"/>
<polygon fill="black" stroke="black" points="346.96,-64.91 340.1,-72.98 350.5,-70.95 346.96,-64.91"/>
</g>
<!-- d -->
<g id="node7" class="node">
<title>d</title>
<polygon fill="none" stroke="black" points="268,-101 232,-101 232,-65 268,-65 268,-101"/>
<polyline fill="none" stroke="black" points="244,-101 232,-89 "/>
<polyline fill="none" stroke="black" points="232,-77 244,-65 "/>
<polyline fill="none" stroke="black" points="256,-65 268,-77 "/>
<polyline fill="none" stroke="black" points="268,-89 256,-101 "/>
<text text-anchor="middle" x="250" y="-79.3" font-family="Times,serif" font-size="14.00">d</text>
</g>
<!-- e&#45;&gt;d -->
<g id="edge6" class="edge">
<title>e&#45;&gt;d</title>
<path fill="none" stroke="black" d="M303.7,-83C295.98,-83 286.71,-83 278.11,-83"/>
<polygon fill="black" stroke="black" points="278.1,-79.5 268.1,-83 278.1,-86.5 278.1,-79.5"/>
</g>
<!-- c -->
<g id="node8" class="node">
<title>c</title>
<polygon fill="none" stroke="black" points="196,-101 160,-101 160,-65 196,-65 196,-101"/>
<polyline fill="none" stroke="black" points="172,-101 160,-89 "/>
<polyline fill="none" stroke="black" points="160,-77 172,-65 "/>
<polyline fill="none" stroke="black" points="184,-65 196,-77 "/>
<polyline fill="none" stroke="black" points="196,-89 184,-101 "/>
<text text-anchor="middle" x="178" y="-79.3" font-family="Times,serif" font-size="14.00">c</text>
</g>
<!-- d&#45;&gt;c -->
<g id="edge7" class="edge">
<title>d&#45;&gt;c</title>
<path fill="none" stroke="black" d="M231.7,-83C223.98,-83 214.71,-83 206.11,-83"/>
<polygon fill="black" stroke="black" points="206.1,-79.5 196.1,-83 206.1,-86.5 206.1,-79.5"/>
</g>
<!-- b -->
<g id="node9" class="node">
<title>b</title>
<polygon fill="none" stroke="black" points="124,-101 88,-101 88,-65 124,-65 124,-101"/>
<polyline fill="none" stroke="black" points="100,-101 88,-89 "/>
<polyline fill="none" stroke="black" points="88,-77 100,-65 "/>
<polyline fill="none" stroke="black" points="112,-65 124,-77 "/>
<polyline fill="none" stroke="black" points="124,-89 112,-101 "/>
<text text-anchor="middle" x="106" y="-79.3" font-family="Times,serif" font-size="14.00">b</text>
</g>
<!-- c&#45;&gt;b -->
<g id="edge8" class="edge">
<title>c&#45;&gt;b</title>
<path fill="none" stroke="black" d="M159.7,-83C151.98,-83 142.71,-83 134.11,-83"/>
<polygon fill="black" stroke="black" points="134.1,-79.5 124.1,-83 134.1,-86.5 134.1,-79.5"/>
</g>
<!-- a -->
<g id="node10" class="node">
<title>a</title>
<polygon fill="none" stroke="black" points="52,-101 16,-101 16,-65 52,-65 52,-101"/>
<polyline fill="none" stroke="black" points="28,-101 16,-89 "/>
<polyline fill="none" stroke="black" points="16,-77 28,-65 "/>
<polyline fill="none" stroke="black" points="40,-65 52,-77 "/>
<polyline fill="none" stroke="black" points="52,-89 40,-101 "/>
<text text-anchor="middle" x="34" y="-79.3" font-family="Times,serif" font-size="14.00">a</text>
</g>
<!-- b&#45;&gt;a -->
<g id="edge9" class="edge">
<title>b&#45;&gt;a</title>
<path fill="none" stroke="black" d="M87.7,-83C79.98,-83 70.71,-83 62.11,-83"/>
<polygon fill="black" stroke="black" points="62.1,-79.5 52.1,-83 62.1,-86.5 62.1,-79.5"/>
</g>
</g>
</svg>
