<?xml version="1.0" encoding="UTF-8" standalone="no"?>
<!DOCTYPE svg PUBLIC "-//W3C//DTD SVG 1.1//EN"
 "http://www.w3.org/Graphics/SVG/1.1/DTD/svg11.dtd">
<!-- Generated by graphviz version 2.43.0 (0)
 -->
<!-- Title: BlockHistory Pages: 1 -->
<svg width="564pt" height="182pt"
 viewBox="0.00 0.00 564.00 182.00" xmlns="http://www.w3.org/2000/svg" xmlns:xlink="http://www.w3.org/1999/xlink">
<g id="graph0" class="graph" transform="scale(1 1) rotate(0) translate(4 178)">
<title>BlockHistory</title>
<polygon fill="white" stroke="transparent" points="-4,4 -4,-178 560,-178 560,4 -4,4"/>
<g id="clust2" class="cluster">
<title>cluster_rollback_branch</title>
<polygon fill="none" stroke="lightgrey" points="352,-91 352,-166 476,-166 476,-91 352,-91"/>
<text text-anchor="middle" x="414" y="-150.8" font-family="Times,serif" font-size="14.00">T=0</text>
</g>
<g id="clust3" class="cluster">
<title>cluster_winning_branch</title>
<polygon fill="none" stroke="lightgrey" points="352,-8 352,-83 548,-83 548,-8 352,-8"/>
<text text-anchor="middle" x="450" y="-67.8" font-family="Times,serif" font-size="14.00">T=1</text>
</g>
<!-- e -->
<g id="node1" class="node">
<title>e</title>
<polygon fill="none" stroke="black" points="324,-93 288,-93 288,-57 324,-57 324,-93"/>
<text text-anchor="middle" x="306" y="-71.3" font-family="Times,serif" font-size="14.00">e</text>
</g>
<!-- d -->
<g id="node2" class="node">
<title>d</title>
<polygon fill="none" stroke="black" points="252,-93 216,-93 216,-57 252,-57 252,-93"/>
<text text-anchor="middle" x="234" y="-71.3" font-family="Times,serif" font-size="14.00">d</text>
</g>
<!-- e&#45;&gt;d -->
<g id="edge1" class="edge">
<title>e&#45;&gt;d</title>
<path fill="none" stroke="black" d="M287.7,-75C279.98,-75 270.71,-75 262.11,-75"/>
<polygon fill="black" stroke="black" points="262.1,-71.5 252.1,-75 262.1,-78.5 262.1,-71.5"/>
</g>
<!-- c -->
<g id="node3" class="node">
<title>c</title>
<polygon fill="none" stroke="black" points="180,-93 144,-93 144,-57 180,-57 180,-93"/>
<text text-anchor="middle" x="162" y="-71.3" font-family="Times,serif" font-size="14.00">c</text>
</g>
<!-- d&#45;&gt;c -->
<g id="edge2" class="edge">
<title>d&#45;&gt;c</title>
<path fill="none" stroke="black" d="M215.7,-75C207.98,-75 198.71,-75 190.11,-75"/>
<polygon fill="black" stroke="black" points="190.1,-71.5 180.1,-75 190.1,-78.5 190.1,-71.5"/>
</g>
<!-- b -->
<g id="node4" class="node">
<title>b</title>
<polygon fill="none" stroke="black" points="108,-93 72,-93 72,-57 108,-57 108,-93"/>
<text text-anchor="middle" x="90" y="-71.3" font-family="Times,serif" font-size="14.00">b</text>
</g>
<!-- c&#45;&gt;b -->
<g id="edge3" class="edge">
<title>c&#45;&gt;b</title>
<path fill="none" stroke="black" d="M143.7,-75C135.98,-75 126.71,-75 118.11,-75"/>
<polygon fill="black" stroke="black" points="118.1,-71.5 108.1,-75 118.1,-78.5 118.1,-71.5"/>
</g>
<!-- a -->
<g id="node5" class="node">
<title>a</title>
<polygon fill="none" stroke="black" points="36,-93 0,-93 0,-57 36,-57 36,-93"/>
<text text-anchor="middle" x="18" y="-71.3" font-family="Times,serif" font-size="14.00">a</text>
</g>
<!-- b&#45;&gt;a -->
<g id="edge4" class="edge">
<title>b&#45;&gt;a</title>
<path fill="none" stroke="black" d="M71.7,-75C63.98,-75 54.71,-75 46.11,-75"/>
<polygon fill="black" stroke="black" points="46.1,-71.5 36.1,-75 46.1,-78.5 46.1,-71.5"/>
</g>
<!-- g0 -->
<g id="node6" class="node">
<title>g0</title>
<polygon fill="none" stroke="black" stroke-dasharray="1,5" points="468,-135 432,-135 432,-99 468,-99 468,-135"/>
<text text-anchor="middle" x="450" y="-113.3" font-family="Times,serif" font-size="14.00">g</text>
</g>
<!-- f0 -->
<g id="node7" class="node">
<title>f0</title>
<polygon fill="none" stroke="black" stroke-dasharray="1,5" points="396,-135 360,-135 360,-99 396,-99 396,-135"/>
<text text-anchor="middle" x="378" y="-113.3" font-family="Times,serif" font-size="14.00">f</text>
</g>
<!-- g0&#45;&gt;f0 -->
<g id="edge5" class="edge">
<title>g0&#45;&gt;f0</title>
<path fill="none" stroke="black" d="M431.7,-117C423.98,-117 414.71,-117 406.11,-117"/>
<polygon fill="black" stroke="black" points="406.1,-113.5 396.1,-117 406.1,-120.5 406.1,-113.5"/>
</g>
<!-- f0&#45;&gt;e -->
<g id="edge8" class="edge">
<title>f0&#45;&gt;e</title>
<path fill="none" stroke="black" d="M359.7,-106.62C351.56,-101.74 341.69,-95.81 332.7,-90.42"/>
<polygon fill="black" stroke="black" points="334.48,-87.41 324.1,-85.26 330.88,-93.41 334.48,-87.41"/>
</g>
<!-- h1 -->
<g id="node8" class="node">
<title>h1</title>
<polygon fill="none" stroke="black" points="540,-52 504,-52 504,-16 540,-16 540,-52"/>
<text text-anchor="middle" x="522" y="-30.3" font-family="Times,serif" font-size="14.00">h&#39;</text>
</g>
<!-- g1 -->
<g id="node9" class="node">
<title>g1</title>
<polygon fill="none" stroke="black" points="468,-52 432,-52 432,-16 468,-16 468,-52"/>
<text text-anchor="middle" x="450" y="-30.3" font-family="Times,serif" font-size="14.00">g&#39;</text>
</g>
<!-- h1&#45;&gt;g1 -->
<g id="edge6" class="edge">
<title>h1&#45;&gt;g1</title>
<path fill="none" stroke="black" d="M503.7,-34C495.98,-34 486.71,-34 478.11,-34"/>
<polygon fill="black" stroke="black" points="478.1,-30.5 468.1,-34 478.1,-37.5 478.1,-30.5"/>
</g>
<!-- f1 -->
<g id="node10" class="node">
<title>f1</title>
<polygon fill="none" stroke="black" points="396,-52 360,-52 360,-16 396,-16 396,-52"/>
<text text-anchor="middle" x="378" y="-30.3" font-family="Times,serif" font-size="14.00">f&#39;</text>
</g>
<!-- g1&#45;&gt;f1 -->
<g id="edge7" class="edge">
<title>g1&#45;&gt;f1</title>
<path fill="none" stroke="black" d="M431.7,-34C423.98,-34 414.71,-34 406.11,-34"/>
<polygon fill="black" stroke="black" points="406.1,-30.5 396.1,-34 406.1,-37.5 406.1,-30.5"/>
</g>
<!-- f1&#45;&gt;e -->
<g id="edge9" class="edge">
<title>f1&#45;&gt;e</title>
<path fill="none" stroke="black" d="M359.7,-44.13C351.64,-48.85 341.89,-54.56 332.98,-59.78"/>
<polygon fill="black" stroke="black" points="330.96,-56.91 324.1,-64.98 334.5,-62.95 330.96,-56.91"/>
</g>
</g>
</svg>
