<?xml version="1.0" encoding="UTF-8" standalone="no"?>
<!DOCTYPE svg PUBLIC "-//W3C//DTD SVG 1.1//EN"
 "http://www.w3.org/Graphics/SVG/1.1/DTD/svg11.dtd">
<!-- Generated by graphviz version 2.43.0 (0)
 -->
<!-- Title: ZcashTechTreeGeneric Pages: 1 -->
<svg width="530pt" height="189pt"
 viewBox="0.00 0.00 530.00 189.00" xmlns="http://www.w3.org/2000/svg" xmlns:xlink="http://www.w3.org/1999/xlink">
<g id="graph0" class="graph" transform="scale(1 1) rotate(0) translate(4 185)">
<title>ZcashTechTreeGeneric</title>
<polygon fill="white" stroke="transparent" points="-4,4 -4,-185 526,-185 526,4 -4,4"/>
<g id="clust1" class="cluster">
<title>cluster_pos</title>
<polygon fill="none" stroke="lightgrey" points="141,-8 141,-83 514,-83 514,-8 141,-8"/>
<text text-anchor="middle" x="327.5" y="-67.8" font-family="Times,serif" font-size="14.00">PoS Transition</text>
</g>
<!-- nu5 -->
<g id="node1" class="node">
<title>nu5</title>
<polygon fill="none" stroke="black" points="113,-127 0,-127 0,-91 113,-91 113,-127"/>
<text text-anchor="middle" x="56.5" y="-105.3" font-family="Times,serif" font-size="14.00">NU5 Protocol</text>
</g>
<!-- a -->
<g id="node2" class="node">
<title>a</title>
<polygon fill="none" stroke="black" points="239.5,-181 153.5,-181 153.5,-145 239.5,-145 239.5,-181"/>
<text text-anchor="middle" x="196.5" y="-159.3" font-family="Times,serif" font-size="14.00">Feature A</text>
</g>
<!-- a&#45;&gt;nu5 -->
<g id="edge1" class="edge">
<title>a&#45;&gt;nu5</title>
<path fill="none" stroke="black" d="M153.35,-146.5C140.72,-141.56 126.67,-136.06 113.3,-130.84"/>
<polygon fill="black" stroke="black" points="114.31,-127.47 103.72,-127.09 111.76,-133.99 114.31,-127.47"/>
</g>
<!-- b -->
<g id="node3" class="node">
<title>b</title>
<polygon fill="none" stroke="black" points="371,-181 284,-181 284,-145 371,-145 371,-181"/>
<text text-anchor="middle" x="327.5" y="-159.3" font-family="Times,serif" font-size="14.00">Feature B</text>
</g>
<!-- b&#45;&gt;a -->
<g id="edge2" class="edge">
<title>b&#45;&gt;a</title>
<path fill="none" stroke="black" d="M283.9,-163C273,-163 261.16,-163 249.83,-163"/>
<polygon fill="black" stroke="black" points="249.61,-159.5 239.61,-163 249.61,-166.5 249.61,-159.5"/>
</g>
<!-- c -->
<g id="node4" class="node">
<title>c</title>
<polygon fill="none" stroke="black" points="240,-127 153,-127 153,-91 240,-91 240,-127"/>
<text text-anchor="middle" x="196.5" y="-105.3" font-family="Times,serif" font-size="14.00">Feature C</text>
</g>
<!-- c&#45;&gt;nu5 -->
<g id="edge3" class="edge">
<title>c&#45;&gt;nu5</title>
<path fill="none" stroke="black" d="M152.97,-109C143.53,-109 133.3,-109 123.17,-109"/>
<polygon fill="black" stroke="black" points="123.11,-105.5 113.11,-109 123.11,-112.5 123.11,-105.5"/>
</g>
<!-- d -->
<g id="node5" class="node">
<title>d</title>
<polygon fill="none" stroke="black" points="371.5,-127 283.5,-127 283.5,-91 371.5,-91 371.5,-127"/>
<text text-anchor="middle" x="327.5" y="-105.3" font-family="Times,serif" font-size="14.00">Feature D</text>
</g>
<!-- d&#45;&gt;a -->
<g id="edge5" class="edge">
<title>d&#45;&gt;a</title>
<path fill="none" stroke="black" d="M283.19,-127.13C272.21,-131.73 260.31,-136.71 248.97,-141.46"/>
<polygon fill="black" stroke="black" points="247.48,-138.28 239.61,-145.37 250.18,-144.74 247.48,-138.28"/>
</g>
<!-- d&#45;&gt;c -->
<g id="edge4" class="edge">
<title>d&#45;&gt;c</title>
<path fill="none" stroke="black" d="M283.19,-109C272.65,-109 261.26,-109 250.33,-109"/>
<polygon fill="black" stroke="black" points="250.04,-105.5 240.04,-109 250.04,-112.5 250.04,-105.5"/>
</g>
<!-- e -->
<g id="node6" class="node">
<title>e</title>
<polygon fill="none" stroke="black" points="502,-127 415,-127 415,-91 502,-91 502,-127"/>
<text text-anchor="middle" x="458.5" y="-105.3" font-family="Times,serif" font-size="14.00">Feature E</text>
</g>
<!-- e&#45;&gt;d -->
<g id="edge7" class="edge">
<title>e&#45;&gt;d</title>
<path fill="none" stroke="black" d="M414.9,-109C404.45,-109 393.12,-109 382.22,-109"/>
<polygon fill="black" stroke="black" points="381.93,-105.5 371.93,-109 381.93,-112.5 381.93,-105.5"/>
</g>
<!-- pos2 -->
<g id="node7" class="node">
<title>pos2</title>
<polygon fill="none" stroke="black" points="375,-52 280,-52 280,-16 375,-16 375,-52"/>
<text text-anchor="middle" x="327.5" y="-30.3" font-family="Times,serif" font-size="14.00">PoS Step 2</text>
</g>
<!-- e&#45;&gt;pos2 -->
<g id="edge6" class="edge">
<title>e&#45;&gt;pos2</title>
<path fill="none" stroke="black" d="M418.24,-90.87C415.78,-89.6 413.34,-88.3 411,-87 394.97,-78.11 377.84,-67.32 363.36,-57.81"/>
<polygon fill="black" stroke="black" points="364.99,-54.69 354.72,-52.08 361.12,-60.52 364.99,-54.69"/>
</g>
<!-- pos1 -->
<g id="node8" class="node">
<title>pos1</title>
<polygon fill="none" stroke="black" points="244,-52 149,-52 149,-16 244,-16 244,-52"/>
<text text-anchor="middle" x="196.5" y="-30.3" font-family="Times,serif" font-size="14.00">PoS Step 1</text>
</g>
<!-- pos2&#45;&gt;pos1 -->
<g id="edge9" class="edge">
<title>pos2&#45;&gt;pos1</title>
<path fill="none" stroke="black" d="M279.93,-34C271.52,-34 262.68,-34 254.03,-34"/>
<polygon fill="black" stroke="black" points="254,-30.5 244,-34 254,-37.5 254,-30.5"/>
</g>
<!-- pos1&#45;&gt;nu5 -->
<g id="edge8" class="edge">
<title>pos1&#45;&gt;nu5</title>
<path fill="none" stroke="black" d="M162.09,-52.16C143.42,-62.31 119.95,-75.06 99.98,-85.91"/>
<polygon fill="black" stroke="black" points="98.19,-82.9 91.08,-90.75 101.53,-89.05 98.19,-82.9"/>
</g>
<!-- pos3 -->
<g id="node9" class="node">
<title>pos3</title>
<polygon fill="none" stroke="black" points="506,-52 411,-52 411,-16 506,-16 506,-52"/>
<text text-anchor="middle" x="458.5" y="-30.3" font-family="Times,serif" font-size="14.00">PoS Step 3</text>
</g>
<!-- pos3&#45;&gt;pos2 -->
<g id="edge10" class="edge">
<title>pos3&#45;&gt;pos2</title>
<path fill="none" stroke="black" d="M410.93,-34C402.52,-34 393.68,-34 385.03,-34"/>
<polygon fill="black" stroke="black" points="385,-30.5 375,-34 385,-37.5 385,-30.5"/>
</g>
</g>
</svg>
