<?xml version="1.0" encoding="UTF-8" standalone="no"?>
<!DOCTYPE svg PUBLIC "-//W3C//DTD SVG 1.1//EN"
 "http://www.w3.org/Graphics/SVG/1.1/DTD/svg11.dtd">
<!-- Generated by graphviz version 2.43.0 (0)
 -->
<!-- Title: BlockHistory Pages: 1 -->
<svg width="508pt" height="99pt"
 viewBox="0.00 0.00 508.00 99.00" xmlns="http://www.w3.org/2000/svg" xmlns:xlink="http://www.w3.org/1999/xlink">
<g id="graph0" class="graph" transform="scale(1 1) rotate(0) translate(4 95)">
<title>BlockHistory</title>
<polygon fill="white" stroke="transparent" points="-4,4 -4,-95 504,-95 504,4 -4,4"/>
<g id="clust1" class="cluster">
<title>cluster_pow</title>
<polygon fill="none" stroke="lightgrey" points="296,-8 296,-83 492,-83 492,-8 296,-8"/>
<text text-anchor="middle" x="394" y="-67.8" font-family="Times,serif" font-size="14.00">Unfinalized PoW Blocks</text>
</g>
<g id="clust2" class="cluster">
<title>cluster_final</title>
<polygon fill="none" stroke="lightgrey" points="8,-8 8,-83 276,-83 276,-8 8,-8"/>
<text text-anchor="middle" x="142" y="-67.8" font-family="Times,serif" font-size="14.00">Finalized Blocks</text>
</g>
<!-- g -->
<g id="node1" class="node">
<title>g</title>
<polygon fill="none" stroke="black" points="484,-52 448,-52 448,-16 484,-16 484,-52"/>
<text text-anchor="middle" x="466" y="-30.3" font-family="Times,serif" font-size="14.00">g</text>
</g>
<!-- f -->
<g id="node2" class="node">
<title>f</title>
<polygon fill="none" stroke="black" points="412,-52 376,-52 376,-16 412,-16 412,-52"/>
<text text-anchor="middle" x="394" y="-30.3" font-family="Times,serif" font-size="14.00">f</text>
</g>
<!-- g&#45;&gt;f -->
<g id="edge1" class="edge">
<title>g&#45;&gt;f</title>
<path fill="none" stroke="black" d="M447.7,-34C439.98,-34 430.71,-34 422.11,-34"/>
<polygon fill="black" stroke="black" points="422.1,-30.5 412.1,-34 422.1,-37.5 422.1,-30.5"/>
</g>
<!-- e -->
<g id="node3" class="node">
<title>e</title>
<polygon fill="none" stroke="black" points="340,-52 304,-52 304,-16 340,-16 340,-52"/>
<text text-anchor="middle" x="322" y="-30.3" font-family="Times,serif" font-size="14.00">e</text>
</g>
<!-- f&#45;&gt;e -->
<g id="edge2" class="edge">
<title>f&#45;&gt;e</title>
<path fill="none" stroke="black" d="M375.7,-34C367.98,-34 358.71,-34 350.11,-34"/>
<polygon fill="black" stroke="black" points="350.1,-30.5 340.1,-34 350.1,-37.5 350.1,-30.5"/>
</g>
<!-- d -->
<g id="node4" class="node">
<title>d</title>
<polygon fill="none" stroke="black" points="268,-52 232,-52 232,-16 268,-16 268,-52"/>
<polyline fill="none" stroke="black" points="244,-52 232,-40 "/>
<polyline fill="none" stroke="black" points="232,-28 244,-16 "/>
<polyline fill="none" stroke="black" points="256,-16 268,-28 "/>
<polyline fill="none" stroke="black" points="268,-40 256,-52 "/>
<text text-anchor="middle" x="250" y="-30.3" font-family="Times,serif" font-size="14.00">d</text>
</g>
<!-- e&#45;&gt;d -->
<g id="edge3" class="edge">
<title>e&#45;&gt;d</title>
<path fill="none" stroke="black" d="M303.7,-34C295.98,-34 286.71,-34 278.11,-34"/>
<polygon fill="black" stroke="black" points="278.1,-30.5 268.1,-34 278.1,-37.5 278.1,-30.5"/>
</g>
<!-- c -->
<g id="node5" class="node">
<title>c</title>
<polygon fill="none" stroke="black" points="196,-52 160,-52 160,-16 196,-16 196,-52"/>
<polyline fill="none" stroke="black" points="172,-52 160,-40 "/>
<polyline fill="none" stroke="black" points="160,-28 172,-16 "/>
<polyline fill="none" stroke="black" points="184,-16 196,-28 "/>
<polyline fill="none" stroke="black" points="196,-40 184,-52 "/>
<text text-anchor="middle" x="178" y="-30.3" font-family="Times,serif" font-size="14.00">c</text>
</g>
<!-- d&#45;&gt;c -->
<g id="edge4" class="edge">
<title>d&#45;&gt;c</title>
<path fill="none" stroke="black" d="M231.7,-34C223.98,-34 214.71,-34 206.11,-34"/>
<polygon fill="black" stroke="black" points="206.1,-30.5 196.1,-34 206.1,-37.5 206.1,-30.5"/>
</g>
<!-- b -->
<g id="node6" class="node">
<title>b</title>
<polygon fill="none" stroke="black" points="124,-52 88,-52 88,-16 124,-16 124,-52"/>
<polyline fill="none" stroke="black" points="100,-52 88,-40 "/>
<polyline fill="none" stroke="black" points="88,-28 100,-16 "/>
<polyline fill="none" stroke="black" points="112,-16 124,-28 "/>
<polyline fill="none" stroke="black" points="124,-40 112,-52 "/>
<text text-anchor="middle" x="106" y="-30.3" font-family="Times,serif" font-size="14.00">b</text>
</g>
<!-- c&#45;&gt;b -->
<g id="edge5" class="edge">
<title>c&#45;&gt;b</title>
<path fill="none" stroke="black" d="M159.7,-34C151.98,-34 142.71,-34 134.11,-34"/>
<polygon fill="black" stroke="black" points="134.1,-30.5 124.1,-34 134.1,-37.5 134.1,-30.5"/>
</g>
<!-- a -->
<g id="node7" class="node">
<title>a</title>
<polygon fill="none" stroke="black" points="52,-52 16,-52 16,-16 52,-16 52,-52"/>
<polyline fill="none" stroke="black" points="28,-52 16,-40 "/>
<polyline fill="none" stroke="black" points="16,-28 28,-16 "/>
<polyline fill="none" stroke="black" points="40,-16 52,-28 "/>
<polyline fill="none" stroke="black" points="52,-40 40,-52 "/>
<text text-anchor="middle" x="34" y="-30.3" font-family="Times,serif" font-size="14.00">a</text>
</g>
<!-- b&#45;&gt;a -->
<g id="edge6" class="edge">
<title>b&#45;&gt;a</title>
<path fill="none" stroke="black" d="M87.7,-34C79.98,-34 70.71,-34 62.11,-34"/>
<polygon fill="black" stroke="black" points="62.1,-30.5 52.1,-34 62.1,-37.5 62.1,-30.5"/>
</g>
</g>
</svg>
